<svg xmlns="http://www.w3.org/2000/svg" viewBox="0 0 584.67 524.5"><defs><style>.cls-1{fill:#3eb5f1;}.cls-2{fill:#4d59a1;}.cls-3{fill:#d7569c;}.cls-4{fill:#52ac62;}.cls-5{fill:#201600;}.cls-6{fill:#d24a43;}.cls-7{fill:#fff343;}</style></defs><title>color-model</title><g id="Слой_2" data-name="Слой 2"><g id="Слой_1-2" data-name="Слой 1"><path class="cls-1" d="M230.34,177.17c0,1.68,0,3.35.07,5A177.21,177.21,0,0,0,117.5,344,177.19,177.19,0,1,1,292.34,42.54,176.76,176.76,0,0,0,230.34,177.17Z"/><path class="cls-2" d="M354.33,177.17q0,1.65,0,3.3a177.84,177.84,0,0,0-123.89,1.71c0-1.66-.07-3.33-.07-5a176.76,176.76,0,0,1,62-134.63A176.8,176.8,0,0,1,354.33,177.17Z"/><path class="cls-3" d="M584.67,177.17A177.22,177.22,0,0,1,471.73,342.33,177.26,177.26,0,0,0,354.3,180.47q0-1.65,0-3.3a176.8,176.8,0,0,0-62-134.63A177.16,177.16,0,0,1,584.67,177.17Z"/><path class="cls-4" d="M292.34,311.79A177.43,177.43,0,0,1,117.5,344,177.21,177.21,0,0,1,230.41,182.18,176.74,176.74,0,0,0,292.34,311.79Z"/><path class="cls-5" d="M354.3,180.47a176.76,176.76,0,0,1-62,131.32,176.74,176.74,0,0,1-61.93-129.61,177.84,177.84,0,0,1,123.89-1.71Z"/><path class="cls-6" d="M471.73,342.33a177.4,177.4,0,0,1-179.39-30.54,176.76,176.76,0,0,0,62-131.32A177.26,177.26,0,0,1,471.73,342.33Z"/><path class="cls-7" d="M471.8,347.34a177.17,177.17,0,0,1-354.33,0c0-1.11,0-2.21,0-3.31a177.43,177.43,0,0,0,174.84-32.24,177.4,177.4,0,0,0,179.39,30.54C471.78,344,471.8,345.66,471.8,347.34Z"/></g></g></svg>