<svg xmlns="http://www.w3.org/2000/svg" viewBox="0 0 594.4 685.18"><defs><style>.cls-1{fill:#fff;}</style></defs><title>fractal</title><g id="Слой_2" data-name="Слой 2"><g id="Слой_1-2" data-name="Слой 1"><polygon class="cls-1" points="11.02 190.69 0.03 209.73 22.02 209.73 11.02 190.69"/><polygon class="cls-1" points="373.72 95.12 395.71 95.12 384.72 76.07 373.72 95.12"/><polygon class="cls-1" points="134.22 133.77 112.23 133.77 123.22 152.81 134.22 133.77"/><polygon class="cls-1" points="461.48 552.02 483.47 552.02 472.48 532.98 461.48 552.02"/><polygon class="cls-1" points="571.01 436.59 592.99 436.59 582 417.55 593 398.5 570.67 398.5 560.01 380.04 549.35 398.5 527.03 398.5 560.01 455.63 571.01 436.59"/><polygon class="cls-1" points="527.43 172.4 494.45 115.27 483.19 134.76 461.46 134.76 472.33 153.58 461.46 172.4 527.43 172.4"/><polygon class="cls-1" points="560.01 153.16 549.01 172.21 571 172.21 560.01 153.16"/><polygon class="cls-1" points="518.03 304.75 507.04 323.79 529.02 323.79 518.03 304.75"/><polygon class="cls-1" points="516.48 380.02 527.47 360.98 505.48 360.98 516.48 380.02"/><polygon class="cls-1" points="593.47 474.98 571.48 474.98 582.48 494.02 593.47 474.98"/><polygon class="cls-1" points="24.35 397.53 46.34 397.53 35.34 378.49 24.35 397.53"/><polygon class="cls-1" points="35.29 533.33 46.29 514.28 24.3 514.28 35.29 533.33"/><polygon class="cls-1" points="24.03 247.56 2.05 247.56 13.04 266.6 1.03 287.41 23.2 287.41 34.01 306.14 44.83 287.41 66.98 287.41 77.23 305.15 66.72 323.35 87.73 323.35 98.95 342.78 197.9 171.39 133.88 171.39 101.18 114.76 89.6 134.83 67.64 134.83 78.62 153.84 68.49 171.39 45.01 171.39 34.01 152.35 23.02 171.39 0 171.39 34.01 230.29 24.03 247.56"/><polygon class="cls-1" points="232.43 37.93 221.44 56.98 243.42 56.98 232.43 37.93"/><polygon class="cls-1" points="582.12 266.14 592.99 247.32 571.25 247.32 561.21 229.93 572.42 210.51 593.99 210.51 583.21 191.83 594.4 172.44 439.14 172.44 428.48 153.98 417.82 172.44 396.5 172.44 384.3 151.3 395.26 132.31 373.33 132.31 362.76 113.99 395.66 57 372.49 57 361.51 37.98 350.53 57 329.85 57 319.32 38.75 330.21 19.89 308.43 19.89 296.94 0 285.77 19.36 264.03 19.36 274.9 38.19 264.02 57.03 198.44 57.03 210.03 77.1 199.05 96.12 221.01 96.12 231.23 113.82 88.77 360.56 67.72 360.56 78.25 378.8 67.4 397.58 2.36 397.58 13.95 417.65 2.97 436.67 24.93 436.67 34.88 453.91 23.42 473.76 2.36 473.76 12.89 492 0.09 514.17 155.67 514.17 166.6 533.1 177.52 514.17 198.9 514.17 209.63 532.76 198.66 551.77 220.61 551.77 231.68 570.94 198.82 627.86 221.8 627.86 232.56 646.51 243.33 627.86 264.54 627.86 275.63 647.07 264.65 666.09 286.62 666.09 297.64 685.18 396.37 514.17 417.59 514.17 428.48 533.02 439.36 514.17 461.68 514.17 494.45 570.92 505.94 551.02 527.47 551.02 516.7 532.37 527.21 514.17 549.59 514.17 560.48 533.02 571.36 514.17 593.8 514.17 495.45 343.82 528.43 286.7 549.01 286.7 560.01 305.75 571 286.7 593.99 286.7 582.12 266.14"/><polygon class="cls-1" points="375.4 551.53 397.39 551.53 386.4 532.49 375.4 551.53"/><polygon class="cls-1" points="396.48 589.12 374.94 589.12 364.22 570.53 331.23 627.66 397.2 627.66 385.71 607.76 396.48 589.12"/><polygon class="cls-1" points="364.35 646.76 375.34 627.72 353.35 627.72 364.35 646.76"/><polygon class="cls-1" points="309.4 665.85 331.39 665.85 320.4 646.8 309.4 665.85"/><polygon class="cls-1" points="220.69 589.86 198.7 589.86 209.7 608.9 220.69 589.86"/><polygon class="cls-1" points="132.94 514.28 66.97 514.28 99.95 571.41 111.63 551.19 133.5 551.19 122.56 532.25 132.94 514.28"/><polygon class="cls-1" points="66.83 552.37 88.81 552.37 77.82 533.33 66.83 552.37"/><polygon class="cls-1" points="528.43 135.76 506.44 135.76 517.44 154.81 528.43 135.76"/></g></g></svg>