<svg xmlns="http://www.w3.org/2000/svg" viewBox="0 0 500 578.17"><title>Ресурс 1</title><g id="Слой_2" data-name="Слой 2"><g id="Слой_1-2" data-name="Слой 1"><path d="M68.38,472.71l-.5.29,73,42.17.5.29.5-.29,7.35,4.24-.5.29,73,42.17.5.29.5-.29,7.36,4.24-.5.29L250,578.17l20.13-11.62,7.35-4.25L351,519.85l7.35-4.25,73.52-42.46,7.36-4.24L500,433.8v-2.91L250.61,1.06,250,0l-.61,1.06L0,430.89v2.91l60,34.66.5.29.5-.29Zm287.25-155.1a10.06,10.06,0,0,1-3.52,0l10.57-4.93A11.26,11.26,0,0,1,355.63,317.61ZM352.11,312a9.6,9.6,0,0,1-3.52,0L359.15,307A11.16,11.16,0,0,1,352.11,312ZM349,306.61a9.84,9.84,0,0,1-3.47.61l9.55-6.69A11.22,11.22,0,0,1,349,306.61ZM347,289.7a11.23,11.23,0,0,1-5.81,6.34,9.74,9.74,0,0,1-3.44.76Zm-10.47,1.6a9.77,9.77,0,0,1-3.43.77l9.24-7.1A11.25,11.25,0,0,1,336.5,291.3Zm-4.17-4.56a9.74,9.74,0,0,1-3.25,1.34l7.87-8.6A11.24,11.24,0,0,1,332.33,286.74Zm-12.1-19.93a11.19,11.19,0,0,1-4.6,7.26,9.84,9.84,0,0,1-3.25,1.36Zm-9.51,4.2a9.72,9.72,0,0,1-3,1.9l6.23-9.85A11.23,11.23,0,0,1,310.72,271Zm-3-11.13a11.28,11.28,0,0,1-2.57,8.21,10,10,0,0,1-2.79,2.15Zm-5.47-2.55a11.26,11.26,0,0,1-3.09,8,9.86,9.86,0,0,1-2.92,2Zm-6.86-3.16a11.24,11.24,0,0,1-1.64,8.44,10.08,10.08,0,0,1-2.54,2.45Zm-6.74-2.59a11.24,11.24,0,0,1-.9,8.55,10.12,10.12,0,0,1-2.31,2.66Zm-4.87-1.06a11.2,11.2,0,0,1-2.64,8.18,9.84,9.84,0,0,1-2.8,2.13Zm-7-2.07a11.23,11.23,0,0,1-1.18,8.52,9.77,9.77,0,0,1-2.39,2.58ZM270,246.94a11.3,11.3,0,0,1-.43,8.59,10.12,10.12,0,0,1-2.16,2.78Zm-6.65,6a34,34,0,0,1,.24,5.6c1.07.12,2.13.26,3.19.41-1.06-.15-2.12-.29-3.19-.41v.21l0-.22-1.95-13.09A39.13,39.13,0,0,1,263.36,252.92Zm-6-6.79a26.66,26.66,0,0,1,.49,6.22,29.39,29.39,0,0,1-.62,5Zm-7.74,0a27.29,27.29,0,0,1,.48,6.22,29.39,29.39,0,0,1-.62,5Zm-10.5,6.37a35.46,35.46,0,0,1,1.34-7.08L239.15,258A31.62,31.62,0,0,1,239.15,252.5Zm-8.47-5.56,2.59,11.37a10.12,10.12,0,0,1-2.16-2.78A11.25,11.25,0,0,1,230.68,246.94Zm7,24a21.1,21.1,0,1,1-8.34,21.92,20.45,20.45,0,0,1-.54-4.72A21,21,0,0,1,237.71,270.94Zm-13.86-22.49,3.57,11.1A10,10,0,0,1,225,257,11.26,11.26,0,0,1,223.85,248.45Zm-7,2.07,5.44,10.31a9.7,9.7,0,0,1-2.8-2.13A11.2,11.2,0,0,1,216.87,250.52ZM212,251.58l3.21,11.21a10.12,10.12,0,0,1-2.31-2.66A11.24,11.24,0,0,1,212,251.58Zm-6.74,2.59,4.18,10.89a9.92,9.92,0,0,1-2.54-2.45A11.19,11.19,0,0,1,205.26,254.17Zm-6.86,3.16,6,9.91,0,.08-.11-.05a115.81,115.81,0,0,0-11.1,5.52,115.81,115.81,0,0,1,11.1-5.52,10,10,0,0,1-2.81-1.92A11.26,11.26,0,0,1,198.4,257.33Zm-5.16,1.85,5.35,10.35a9.74,9.74,0,0,1-2.79-2.15A11.23,11.23,0,0,1,193.24,259.18Zm0,13a10.15,10.15,0,0,1-3-1.9,11.24,11.24,0,0,1-3.27-7.95Zm-4.63,2.51a9.79,9.79,0,0,1-3.25-1.35,11.26,11.26,0,0,1-4.6-7.26Zm-6.12,4.55a9.79,9.79,0,0,1-3.25-1.35,11.21,11.21,0,0,1-4.6-7.26Zm-5.77,4.54a9.73,9.73,0,0,1-3.13-1.63,11.2,11.2,0,0,1-4-7.62Zm-4.81,3.57a9.79,9.79,0,0,1-3.25-1.35,11.25,11.25,0,0,1-4.62-7.25Zm-4,4a9.78,9.78,0,0,1-3.44-.76,11.23,11.23,0,0,1-5.81-6.34Zm-4.66,4.74a10,10,0,0,1-3.44-.76A11.29,11.29,0,0,1,154,289Zm-4,5.82a116.48,116.48,0,0,1,30.38-27,62,62,0,1,0,121.4,0q3.85,2.37,7.5,5l7.8-8.56a11.19,11.19,0,0,1-4.6,7.26,9.72,9.72,0,0,1-3.16,1.33c2,1.43,3.89,2.93,5.75,4.48l7-9.17a11.31,11.31,0,0,1-4,7.63,10,10,0,0,1-3,1.58,116.45,116.45,0,0,1,17.48,18l8.7-7.3a11.27,11.27,0,0,1-5.53,6.58,9.84,9.84,0,0,1-3.05.87,116.16,116.16,0,0,1,14,23.11c-26.27,20.88-63.84,33.95-105.56,33.95h-2c-41-.42-77.84-13.44-103.69-34.05A116.24,116.24,0,0,1,159.23,302a9.68,9.68,0,0,1-3.29-.89,11.28,11.28,0,0,1-5.53-6.59Zm-3.84,4.59a9.62,9.62,0,0,1-3.47-.61,11.25,11.25,0,0,1-6.08-6.07Zm-3,4.76a10.06,10.06,0,0,1-3.52,0,11.23,11.23,0,0,1-7-4.93Zm-3.52,5.63a9.6,9.6,0,0,1-3.52,0,11.2,11.2,0,0,1-7-4.93Z"/></g></g></svg>