<svg xmlns="http://www.w3.org/2000/svg" viewBox="0 0 586.92 586.92"><defs><style>.cls-1{fill:none;stroke:#201600;stroke-miterlimit:10;stroke-width:4px;}</style></defs><title>Ресурс 1</title><g id="Слой_2" data-name="Слой 2"><g id="Слой_1-2" data-name="Слой 1"><polygon class="cls-1" points="584.61 293.46 439.03 545.6 147.88 545.6 2.31 293.46 147.88 41.32 439.03 41.32 584.61 293.46"/><polygon class="cls-1" points="293.46 2.31 41.32 147.88 41.32 439.03 293.46 584.61 545.6 439.03 545.6 147.88 293.46 2.31"/><line class="cls-1" x1="147.88" y1="41.32" x2="439.03" y2="545.6"/><line class="cls-1" x1="439.03" y1="545.6" x2="439.03" y2="41.32"/><line class="cls-1" x1="439.03" y1="545.6" x2="2.31" y2="293.46"/><line class="cls-1" x1="293.46" y1="584.61" x2="293.46" y2="2.31"/><line class="cls-1" x1="293.46" y1="584.61" x2="545.6" y2="147.88"/><line class="cls-1" x1="293.46" y1="584.61" x2="41.32" y2="147.88"/><line class="cls-1" x1="545.6" y1="439.03" x2="41.32" y2="147.88"/><line class="cls-1" x1="545.6" y1="439.03" x2="41.32" y2="439.03"/><line class="cls-1" x1="584.61" y1="293.46" x2="147.88" y2="545.6"/><line class="cls-1" x1="439.03" y1="41.32" x2="147.88" y2="545.6"/><line class="cls-1" x1="147.88" y1="41.32" x2="147.88" y2="545.6"/><line class="cls-1" x1="584.61" y1="293.46" x2="147.88" y2="41.32"/><line class="cls-1" x1="2.31" y1="293.46" x2="584.61" y2="293.46"/><line class="cls-1" x1="545.6" y1="147.88" x2="41.32" y2="439.03"/><line class="cls-1" x1="41.32" y1="439.03" x2="293.46" y2="2.31"/><line class="cls-1" x1="293.46" y1="2.31" x2="545.6" y2="439.03"/><line class="cls-1" x1="439.03" y1="41.32" x2="2.31" y2="293.46"/><line class="cls-1" x1="545.6" y1="147.88" x2="41.32" y2="147.88"/></g></g></svg>